<?xml version="1.0" standalone="no"?>
<!DOCTYPE svg PUBLIC "-//W3C//DTD SVG 20010904//EN"
 "http://www.w3.org/TR/2001/REC-SVG-20010904/DTD/svg10.dtd">
<svg version="1.0" xmlns="http://www.w3.org/2000/svg"
 width="165.000000pt" height="175.000000pt" viewBox="0 0 165.000000 175.000000"
 preserveAspectRatio="xMidYMid meet">
<metadata>
Created by potrace 1.16, written by Peter Selinger 2001-2019
</metadata>
<g transform="translate(0.000000,175.000000) scale(0.100000,-0.100000)"
fill="#000000" stroke="none">
<path d="M1045 1300 c10 -17 -13 -47 -47 -61 -21 -9 -70 -14 -134 -14 -84 0
-105 3 -122 18 -23 21 -37 9 -27 -23 16 -49 142 -97 229 -86 115 13 187 57
171 104 -7 23 -53 72 -67 72 -5 0 -6 -4 -3 -10z"/>
<path d="M1150 1186 c0 -16 -14 -42 -35 -65 -70 -77 -239 -103 -390 -60 -38
11 -80 22 -93 26 l-23 6 16 -39 c36 -86 117 -133 245 -141 216 -15 369 102
315 242 -20 53 -35 66 -35 31z"/>
<path d="M1198 1004 c-4 -17 -24 -53 -46 -80 -89 -113 -256 -154 -441 -109
-23 6 -22 5 5 -18 61 -51 94 -62 189 -62 100 0 134 12 204 71 51 44 104 148
99 195 l-3 34 -7 -31z"/>
<path d="M238 591 c7 -4 5 -11 -8 -19 -16 -10 -18 -9 -14 3 4 8 3 15 0 15 -4
0 -16 -20 -27 -44 -11 -25 -27 -46 -39 -49 -11 -3 -20 -11 -20 -19 0 -10 3 -9
10 2 8 12 10 12 10 1 0 -11 3 -11 17 0 12 10 15 11 9 1 -14 -23 -25 -73 -15
-67 5 4 9 -1 9 -10 0 -10 -5 -13 -12 -9 -8 5 -9 -2 -5 -27 5 -24 4 -30 -3 -19
-7 11 -10 4 -10 -26 0 -50 -23 -109 -47 -123 -14 -7 -15 -13 -6 -21 8 -9 18
-8 42 6 17 10 33 24 36 31 6 16 -9 10 -45 -21 -23 -19 -22 -18 3 10 15 16 27
36 27 43 0 7 4 10 9 6 9 -5 20 44 24 112 1 18 5 33 10 33 4 0 7 12 6 28 0 24
-1 25 -9 7 -7 -15 -9 -16 -9 -4 -1 20 45 53 60 43 6 -4 15 0 20 7 6 10 1 15
-18 19 -14 3 -28 10 -30 16 -6 17 46 64 64 57 10 -4 14 -2 10 4 -4 6 -1 13 5
16 7 2 -5 5 -26 5 -21 0 -34 -3 -28 -7z"/>
<path d="M1095 496 c-39 -17 -69 -51 -62 -70 4 -10 1 -13 -7 -10 -15 6 -26
-24 -26 -74 0 -39 38 -82 72 -82 23 1 70 29 52 32 -5 0 -13 2 -19 3 -5 2 -20
3 -32 4 -16 1 -23 7 -23 21 0 11 -4 20 -10 20 -5 0 -10 7 -10 16 0 8 5 12 10
9 6 -3 10 5 10 18 0 14 16 45 36 69 47 56 46 55 39 36 -5 -12 4 -17 42 -24 31
-5 40 -9 26 -12 -15 -2 -23 -10 -23 -23 0 -10 4 -19 8 -19 5 0 9 -14 9 -31 0
-23 -3 -27 -9 -15 -5 9 -6 21 -3 26 3 6 1 10 -4 10 -14 0 -14 -36 0 -62 14
-26 -4 -49 -23 -29 -11 11 -10 13 5 8 9 -4 17 -2 17 3 0 17 -18 20 -30 5 -10
-12 -8 -18 11 -34 21 -17 24 -17 28 -4 2 13 5 14 12 2 6 -9 9 5 10 41 1 30 1
58 1 61 -1 4 3 22 8 40 7 23 6 37 -3 48 -9 12 -9 13 1 7 7 -4 12 -2 12 4 0 7
-8 9 -19 5 -11 -3 -22 -1 -26 5 -8 14 -44 12 -80 -4z"/>
<path d="M1333 480 l6 -35 -14 30 c-16 34 -20 19 -5 -19 6 -16 6 -35 0 -48 -8
-21 -9 -22 -10 -3 -1 11 -10 -16 -20 -60 -10 -44 -17 -82 -14 -84 2 -2 4 0 4
6 0 6 9 9 20 6 14 -4 20 0 20 11 0 10 -4 15 -9 12 -5 -4 -7 3 -4 14 3 12 8 18
12 15 3 -3 11 24 18 61 7 37 18 71 25 76 23 14 74 9 91 -10 18 -19 23 -47 8
-38 -10 7 -25 -79 -16 -94 3 -5 2 -10 -4 -10 -5 0 -9 -8 -8 -17 0 -11 9 -18
23 -18 18 0 21 6 22 35 1 19 4 46 6 60 16 75 17 90 7 109 -13 23 -46 28 -54 9
-3 -8 -6 -5 -6 5 -1 14 -6 17 -23 11 -13 -3 -29 -11 -37 -17 -10 -9 -17 -6
-28 8 -14 19 -15 18 -10 -15z"/>
<path d="M545 489 c-4 -6 -4 -13 -1 -16 3 -3 0 -15 -6 -26 -6 -11 -12 -51 -13
-89 -2 -60 0 -70 18 -83 25 -18 63 -20 73 -4 3 6 19 9 35 5 16 -3 29 -1 29 4
0 6 6 10 14 10 9 0 16 17 21 48 3 26 9 58 12 71 4 18 3 22 -7 16 -9 -6 -9 -2
1 16 19 36 18 59 -3 59 -10 0 -18 -7 -18 -16 0 -9 5 -12 13 -8 6 4 4 -1 -5
-12 -23 -26 -34 -99 -18 -119 14 -17 6 -50 -10 -40 -5 3 -10 0 -10 -8 0 -12
-8 -13 -42 -6 -23 6 -47 8 -54 5 -15 -6 -11 119 5 172 8 28 7 32 -9 32 -10 0
-22 -5 -25 -11z"/>
</g>
</svg>
